<?xml version="1.0" encoding="utf-8" standalone="no"?>
<!DOCTYPE svg PUBLIC "-//W3C//DTD SVG 1.1//EN"
  "http://www.w3.org/Graphics/SVG/1.1/DTD/svg11.dtd">
<!-- Created with matplotlib (http://matplotlib.org/) -->
<svg height="288pt" version="1.1" viewBox="0 0 576 288" width="576pt" xmlns="http://www.w3.org/2000/svg" xmlns:xlink="http://www.w3.org/1999/xlink">
 <defs>
  <style type="text/css">
*{stroke-linecap:butt;stroke-linejoin:round;stroke-miterlimit:100000;}
  </style>
 </defs>
 <g id="figure_1">
  <g id="patch_1">
   <path d="M 0 288 
L 576 288 
L 576 0 
L 0 0 
z
" style="fill:#ffffff;"/>
  </g>
  <g id="axes_1">
   <g id="patch_2">
    <path d="M 12.96 275.04 
L 563.04 275.04 
L 563.04 13.029231 
L 12.96 13.029231 
z
" style="fill:#ffffff;"/>
   </g>
   <g id="line2d_1">
    <path clip-path="url(#pcd5cf81123)" d="M 283.54131 101.493856 
L 432.461569 191.182158 
L 489.322985 236.62615 
L 563.389701 270.241268 
" style="fill:none;opacity:0.25;stroke:#ff0000;stroke-linecap:square;"/>
   </g>
   <g id="line2d_2">
    <path clip-path="url(#pcd5cf81123)" d="M 84.211621 200.563679 
L 70.10992 225.037212 
" style="fill:none;opacity:0.25;stroke:#00ff80;stroke-linecap:square;"/>
   </g>
   <g id="line2d_3">
    <path clip-path="url(#pcd5cf81123)" d="M 161.277025 150.392935 
L 127.22487 185.255724 
" style="fill:none;opacity:0.25;stroke:#00ffbf;stroke-linecap:square;"/>
   </g>
   <g id="line2d_4">
    <path clip-path="url(#pcd5cf81123)" d="M 195.635168 163.277531 
L 234.277152 141.659243 
L 283.235321 119.944981 
L 373.370807 96.767105 
L 413.717584 80.849711 
L 470.487204 62.357797 
L 455.869694 63.545483 
L 459.883826 69.786234 
" style="fill:none;opacity:0.25;stroke:#0000bf;stroke-linecap:square;"/>
   </g>
   <g id="line2d_5">
    <path clip-path="url(#pcd5cf81123)" d="M 132.645238 81.075251 
L 218.934011 66.608274 
L 306.79644 51.55825 
L 375.906141 48.602231 
L 488.5449 40.046092 
L 454.125559 64.50427 
" style="fill:none;opacity:0.25;stroke:#33cc40;stroke-linecap:square;"/>
   </g>
   <g id="line2d_6">
    <path clip-path="url(#pcd5cf81123)" d="M 293.988633 264.098891 
L 314.70843 227.84447 
L 349.416275 206.730049 
L 384.255257 178.777435 
L 408.384641 140.171636 
" style="fill:none;opacity:0.25;stroke:#f28040;stroke-linecap:square;"/>
   </g>
   <g id="line2d_7">
    <path clip-path="url(#pcd5cf81123)" d="M 40.236694 165.556929 
L 50.858868 202.411191 
L 83.337368 221.318195 
" style="fill:none;opacity:0.25;stroke:#e600cc;stroke-linecap:square;"/>
   </g>
   <g id="line2d_8">
    <path clip-path="url(#pcd5cf81123)" d="M 114.548201 189.142697 
L 159.87822 152.312428 
L 230.561577 117.353665 
" style="fill:none;opacity:0.25;stroke:#cc00cc;stroke-linecap:square;"/>
   </g>
   <g id="line2d_9">
    <path clip-path="url(#pcd5cf81123)" d="M 45.700776 210.66501 
L 70.748125 228.876198 
" style="fill:none;opacity:0.25;stroke:#b200b2;stroke-linecap:square;"/>
   </g>
   <g id="line2d_10">
    <path clip-path="url(#pcd5cf81123)" d="M 238.648417 121.000702 
L 372.059428 79.518063 
" style="fill:none;opacity:0.25;stroke:#990099;stroke-linecap:square;"/>
   </g>
   <g id="patch_3">
    <path d="M 12.96 66.05522 
L 563.04 66.05522 
" style="fill:none;stroke:#808080;stroke-linecap:square;stroke-linejoin:miter;stroke-width:0.8;"/>
   </g>
   <g id="patch_4">
    <path d="M 460.664971 275.04 
L 460.664971 13.029231 
" style="fill:none;stroke:#808080;stroke-linecap:square;stroke-linejoin:miter;stroke-width:0.8;"/>
   </g>
   <g id="matplotlib.axis_1">
    <g id="xtick_1">
     <g id="line2d_11">
      <defs>
       <path d="M 0 0 
L 0 -4 
" id="m6d38b06241" style="stroke:#808080;stroke-width:0.5;"/>
      </defs>
      <g>
       <use style="fill:#808080;stroke:#808080;stroke-width:0.5;" x="23.5384615385" xlink:href="#m6d38b06241" y="66.0552197802"/>
      </g>
     </g>
     <g id="text_1">
      <!-- -1 -->
      <defs>
       <path d="M 12.40625 8.296875 
L 28.515625 8.296875 
L 28.515625 63.921875 
L 10.984375 60.40625 
L 10.984375 69.390625 
L 28.421875 72.90625 
L 38.28125 72.90625 
L 38.28125 8.296875 
L 54.390625 8.296875 
L 54.390625 0 
L 12.40625 0 
z
" id="BitstreamVeraSans-Roman-31"/>
       <path d="M 4.890625 31.390625 
L 31.203125 31.390625 
L 31.203125 23.390625 
L 4.890625 23.390625 
z
" id="BitstreamVeraSans-Roman-2d"/>
      </defs>
      <g transform="translate(18.5533052885 77.6536572802)scale(0.1 -0.1)">
       <use xlink:href="#BitstreamVeraSans-Roman-2d"/>
       <use x="36.083984375" xlink:href="#BitstreamVeraSans-Roman-31"/>
      </g>
     </g>
    </g>
    <g id="xtick_2">
     <g id="line2d_12">
      <g>
       <use style="fill:#808080;stroke:#808080;stroke-width:0.5;" x="110.963763509" xlink:href="#m6d38b06241" y="66.0552197802"/>
      </g>
     </g>
     <g id="text_2">
      <!-- -0.8 -->
      <defs>
       <path d="M 31.78125 66.40625 
Q 24.171875 66.40625 20.328125 58.90625 
Q 16.5 51.421875 16.5 36.375 
Q 16.5 21.390625 20.328125 13.890625 
Q 24.171875 6.390625 31.78125 6.390625 
Q 39.453125 6.390625 43.28125 13.890625 
Q 47.125 21.390625 47.125 36.375 
Q 47.125 51.421875 43.28125 58.90625 
Q 39.453125 66.40625 31.78125 66.40625 
M 31.78125 74.21875 
Q 44.046875 74.21875 50.515625 64.515625 
Q 56.984375 54.828125 56.984375 36.375 
Q 56.984375 17.96875 50.515625 8.265625 
Q 44.046875 -1.421875 31.78125 -1.421875 
Q 19.53125 -1.421875 13.0625 8.265625 
Q 6.59375 17.96875 6.59375 36.375 
Q 6.59375 54.828125 13.0625 64.515625 
Q 19.53125 74.21875 31.78125 74.21875 
" id="BitstreamVeraSans-Roman-30"/>
       <path d="M 10.6875 12.40625 
L 21 12.40625 
L 21 0 
L 10.6875 0 
z
" id="BitstreamVeraSans-Roman-2e"/>
       <path d="M 31.78125 34.625 
Q 24.75 34.625 20.71875 30.859375 
Q 16.703125 27.09375 16.703125 20.515625 
Q 16.703125 13.921875 20.71875 10.15625 
Q 24.75 6.390625 31.78125 6.390625 
Q 38.8125 6.390625 42.859375 10.171875 
Q 46.921875 13.96875 46.921875 20.515625 
Q 46.921875 27.09375 42.890625 30.859375 
Q 38.875 34.625 31.78125 34.625 
M 21.921875 38.8125 
Q 15.578125 40.375 12.03125 44.71875 
Q 8.5 49.078125 8.5 55.328125 
Q 8.5 64.0625 14.71875 69.140625 
Q 20.953125 74.21875 31.78125 74.21875 
Q 42.671875 74.21875 48.875 69.140625 
Q 55.078125 64.0625 55.078125 55.328125 
Q 55.078125 49.078125 51.53125 44.71875 
Q 48 40.375 41.703125 38.8125 
Q 48.828125 37.15625 52.796875 32.3125 
Q 56.78125 27.484375 56.78125 20.515625 
Q 56.78125 9.90625 50.3125 4.234375 
Q 43.84375 -1.421875 31.78125 -1.421875 
Q 19.734375 -1.421875 13.25 4.234375 
Q 6.78125 9.90625 6.78125 20.515625 
Q 6.78125 27.484375 10.78125 32.3125 
Q 14.796875 37.15625 21.921875 38.8125 
M 18.3125 54.390625 
Q 18.3125 48.734375 21.84375 45.5625 
Q 25.390625 42.390625 31.78125 42.390625 
Q 38.140625 42.390625 41.71875 45.5625 
Q 45.3125 48.734375 45.3125 54.390625 
Q 45.3125 60.0625 41.71875 63.234375 
Q 38.140625 66.40625 31.78125 66.40625 
Q 25.390625 66.40625 21.84375 63.234375 
Q 18.3125 60.0625 18.3125 54.390625 
" id="BitstreamVeraSans-Roman-38"/>
      </defs>
      <g transform="translate(101.208294759 77.6536572802)scale(0.1 -0.1)">
       <use xlink:href="#BitstreamVeraSans-Roman-2d"/>
       <use x="36.083984375" xlink:href="#BitstreamVeraSans-Roman-30"/>
       <use x="99.70703125" xlink:href="#BitstreamVeraSans-Roman-2e"/>
       <use x="131.494140625" xlink:href="#BitstreamVeraSans-Roman-38"/>
      </g>
     </g>
    </g>
    <g id="xtick_3">
     <g id="line2d_13">
      <g>
       <use style="fill:#808080;stroke:#808080;stroke-width:0.5;" x="198.38906548" xlink:href="#m6d38b06241" y="66.0552197802"/>
      </g>
     </g>
     <g id="text_3">
      <!-- -0.6 -->
      <defs>
       <path d="M 33.015625 40.375 
Q 26.375 40.375 22.484375 35.828125 
Q 18.609375 31.296875 18.609375 23.390625 
Q 18.609375 15.53125 22.484375 10.953125 
Q 26.375 6.390625 33.015625 6.390625 
Q 39.65625 6.390625 43.53125 10.953125 
Q 47.40625 15.53125 47.40625 23.390625 
Q 47.40625 31.296875 43.53125 35.828125 
Q 39.65625 40.375 33.015625 40.375 
M 52.59375 71.296875 
L 52.59375 62.3125 
Q 48.875 64.0625 45.09375 64.984375 
Q 41.3125 65.921875 37.59375 65.921875 
Q 27.828125 65.921875 22.671875 59.328125 
Q 17.53125 52.734375 16.796875 39.40625 
Q 19.671875 43.65625 24.015625 45.921875 
Q 28.375 48.1875 33.59375 48.1875 
Q 44.578125 48.1875 50.953125 41.515625 
Q 57.328125 34.859375 57.328125 23.390625 
Q 57.328125 12.15625 50.6875 5.359375 
Q 44.046875 -1.421875 33.015625 -1.421875 
Q 20.359375 -1.421875 13.671875 8.265625 
Q 6.984375 17.96875 6.984375 36.375 
Q 6.984375 53.65625 15.1875 63.9375 
Q 23.390625 74.21875 37.203125 74.21875 
Q 40.921875 74.21875 44.703125 73.484375 
Q 48.484375 72.75 52.59375 71.296875 
" id="BitstreamVeraSans-Roman-36"/>
      </defs>
      <g transform="translate(188.63359673 77.6536572802)scale(0.1 -0.1)">
       <use xlink:href="#BitstreamVeraSans-Roman-2d"/>
       <use x="36.083984375" xlink:href="#BitstreamVeraSans-Roman-30"/>
       <use x="99.70703125" xlink:href="#BitstreamVeraSans-Roman-2e"/>
       <use x="131.494140625" xlink:href="#BitstreamVeraSans-Roman-36"/>
      </g>
     </g>
    </g>
    <g id="xtick_4">
     <g id="line2d_14">
      <g>
       <use style="fill:#808080;stroke:#808080;stroke-width:0.5;" x="285.814367451" xlink:href="#m6d38b06241" y="66.0552197802"/>
      </g>
     </g>
     <g id="text_4">
      <!-- -0.4 -->
      <defs>
       <path d="M 37.796875 64.3125 
L 12.890625 25.390625 
L 37.796875 25.390625 
z
M 35.203125 72.90625 
L 47.609375 72.90625 
L 47.609375 25.390625 
L 58.015625 25.390625 
L 58.015625 17.1875 
L 47.609375 17.1875 
L 47.609375 0 
L 37.796875 0 
L 37.796875 17.1875 
L 4.890625 17.1875 
L 4.890625 26.703125 
z
" id="BitstreamVeraSans-Roman-34"/>
      </defs>
      <g transform="translate(276.058898701 77.6536572802)scale(0.1 -0.1)">
       <use xlink:href="#BitstreamVeraSans-Roman-2d"/>
       <use x="36.083984375" xlink:href="#BitstreamVeraSans-Roman-30"/>
       <use x="99.70703125" xlink:href="#BitstreamVeraSans-Roman-2e"/>
       <use x="131.494140625" xlink:href="#BitstreamVeraSans-Roman-34"/>
      </g>
     </g>
    </g>
    <g id="xtick_5">
     <g id="line2d_15">
      <g>
       <use style="fill:#808080;stroke:#808080;stroke-width:0.5;" x="373.239669421" xlink:href="#m6d38b06241" y="66.0552197802"/>
      </g>
     </g>
     <g id="text_5">
      <!-- -0.2 -->
      <defs>
       <path d="M 19.1875 8.296875 
L 53.609375 8.296875 
L 53.609375 0 
L 7.328125 0 
L 7.328125 8.296875 
Q 12.9375 14.109375 22.625 23.890625 
Q 32.328125 33.6875 34.8125 36.53125 
Q 39.546875 41.84375 41.421875 45.53125 
Q 43.3125 49.21875 43.3125 52.78125 
Q 43.3125 58.59375 39.234375 62.25 
Q 35.15625 65.921875 28.609375 65.921875 
Q 23.96875 65.921875 18.8125 64.3125 
Q 13.671875 62.703125 7.8125 59.421875 
L 7.8125 69.390625 
Q 13.765625 71.78125 18.9375 73 
Q 24.125 74.21875 28.421875 74.21875 
Q 39.75 74.21875 46.484375 68.546875 
Q 53.21875 62.890625 53.21875 53.421875 
Q 53.21875 48.921875 51.53125 44.890625 
Q 49.859375 40.875 45.40625 35.40625 
Q 44.1875 33.984375 37.640625 27.21875 
Q 31.109375 20.453125 19.1875 8.296875 
" id="BitstreamVeraSans-Roman-32"/>
      </defs>
      <g transform="translate(363.484200671 77.6536572802)scale(0.1 -0.1)">
       <use xlink:href="#BitstreamVeraSans-Roman-2d"/>
       <use x="36.083984375" xlink:href="#BitstreamVeraSans-Roman-30"/>
       <use x="99.70703125" xlink:href="#BitstreamVeraSans-Roman-2e"/>
       <use x="131.494140625" xlink:href="#BitstreamVeraSans-Roman-32"/>
      </g>
     </g>
    </g>
    <g id="xtick_6">
     <g id="line2d_16">
      <g>
       <use style="fill:#808080;stroke:#808080;stroke-width:0.5;" x="460.664971392" xlink:href="#m6d38b06241" y="66.0552197802"/>
      </g>
     </g>
    </g>
    <g id="xtick_7">
     <g id="line2d_17">
      <g>
       <use style="fill:#808080;stroke:#808080;stroke-width:0.5;" x="548.090273363" xlink:href="#m6d38b06241" y="66.0552197802"/>
      </g>
     </g>
     <g id="text_6">
      <!-- 0.2 -->
      <g transform="translate(540.138710863 77.6536572802)scale(0.1 -0.1)">
       <use xlink:href="#BitstreamVeraSans-Roman-30"/>
       <use x="63.623046875" xlink:href="#BitstreamVeraSans-Roman-2e"/>
       <use x="95.41015625" xlink:href="#BitstreamVeraSans-Roman-32"/>
      </g>
     </g>
    </g>
    <g id="xtick_8">
     <g id="line2d_18">
      <defs>
       <path d="M 0 0 
L 0 -2 
" id="mf2ee91bae7" style="stroke:#808080;stroke-width:0.5;"/>
      </defs>
      <g>
       <use style="fill:#808080;stroke:#808080;stroke-width:0.5;" x="45.3947870312" xlink:href="#mf2ee91bae7" y="66.0552197802"/>
      </g>
     </g>
    </g>
    <g id="xtick_9">
     <g id="line2d_19">
      <g>
       <use style="fill:#808080;stroke:#808080;stroke-width:0.5;" x="67.2511125238" xlink:href="#mf2ee91bae7" y="66.0552197802"/>
      </g>
     </g>
    </g>
    <g id="xtick_10">
     <g id="line2d_20">
      <g>
       <use style="fill:#808080;stroke:#808080;stroke-width:0.5;" x="89.1074380165" xlink:href="#mf2ee91bae7" y="66.0552197802"/>
      </g>
     </g>
    </g>
    <g id="xtick_11">
     <g id="line2d_21">
      <g>
       <use style="fill:#808080;stroke:#808080;stroke-width:0.5;" x="132.820089002" xlink:href="#mf2ee91bae7" y="66.0552197802"/>
      </g>
     </g>
    </g>
    <g id="xtick_12">
     <g id="line2d_22">
      <g>
       <use style="fill:#808080;stroke:#808080;stroke-width:0.5;" x="154.676414495" xlink:href="#mf2ee91bae7" y="66.0552197802"/>
      </g>
     </g>
    </g>
    <g id="xtick_13">
     <g id="line2d_23">
      <g>
       <use style="fill:#808080;stroke:#808080;stroke-width:0.5;" x="176.532739987" xlink:href="#mf2ee91bae7" y="66.0552197802"/>
      </g>
     </g>
    </g>
    <g id="xtick_14">
     <g id="line2d_24">
      <g>
       <use style="fill:#808080;stroke:#808080;stroke-width:0.5;" x="220.245390973" xlink:href="#mf2ee91bae7" y="66.0552197802"/>
      </g>
     </g>
    </g>
    <g id="xtick_15">
     <g id="line2d_25">
      <g>
       <use style="fill:#808080;stroke:#808080;stroke-width:0.5;" x="242.101716465" xlink:href="#mf2ee91bae7" y="66.0552197802"/>
      </g>
     </g>
    </g>
    <g id="xtick_16">
     <g id="line2d_26">
      <g>
       <use style="fill:#808080;stroke:#808080;stroke-width:0.5;" x="263.958041958" xlink:href="#mf2ee91bae7" y="66.0552197802"/>
      </g>
     </g>
    </g>
    <g id="xtick_17">
     <g id="line2d_27">
      <g>
       <use style="fill:#808080;stroke:#808080;stroke-width:0.5;" x="307.670692943" xlink:href="#mf2ee91bae7" y="66.0552197802"/>
      </g>
     </g>
    </g>
    <g id="xtick_18">
     <g id="line2d_28">
      <g>
       <use style="fill:#808080;stroke:#808080;stroke-width:0.5;" x="329.527018436" xlink:href="#mf2ee91bae7" y="66.0552197802"/>
      </g>
     </g>
    </g>
    <g id="xtick_19">
     <g id="line2d_29">
      <g>
       <use style="fill:#808080;stroke:#808080;stroke-width:0.5;" x="351.383343929" xlink:href="#mf2ee91bae7" y="66.0552197802"/>
      </g>
     </g>
    </g>
    <g id="xtick_20">
     <g id="line2d_30">
      <g>
       <use style="fill:#808080;stroke:#808080;stroke-width:0.5;" x="395.095994914" xlink:href="#mf2ee91bae7" y="66.0552197802"/>
      </g>
     </g>
    </g>
    <g id="xtick_21">
     <g id="line2d_31">
      <g>
       <use style="fill:#808080;stroke:#808080;stroke-width:0.5;" x="416.952320407" xlink:href="#mf2ee91bae7" y="66.0552197802"/>
      </g>
     </g>
    </g>
    <g id="xtick_22">
     <g id="line2d_32">
      <g>
       <use style="fill:#808080;stroke:#808080;stroke-width:0.5;" x="438.8086459" xlink:href="#mf2ee91bae7" y="66.0552197802"/>
      </g>
     </g>
    </g>
    <g id="xtick_23">
     <g id="line2d_33">
      <g>
       <use style="fill:#808080;stroke:#808080;stroke-width:0.5;" x="482.521296885" xlink:href="#mf2ee91bae7" y="66.0552197802"/>
      </g>
     </g>
    </g>
    <g id="xtick_24">
     <g id="line2d_34">
      <g>
       <use style="fill:#808080;stroke:#808080;stroke-width:0.5;" x="504.377622378" xlink:href="#mf2ee91bae7" y="66.0552197802"/>
      </g>
     </g>
    </g>
    <g id="xtick_25">
     <g id="line2d_35">
      <g>
       <use style="fill:#808080;stroke:#808080;stroke-width:0.5;" x="526.23394787" xlink:href="#mf2ee91bae7" y="66.0552197802"/>
      </g>
     </g>
    </g>
   </g>
   <g id="matplotlib.axis_2">
    <g id="ytick_1">
     <g id="line2d_36">
      <defs>
       <path d="M 0 0 
L 4 0 
" id="ma4c0bc426a" style="stroke:#808080;stroke-width:0.5;"/>
      </defs>
      <g>
       <use style="fill:#808080;stroke:#808080;stroke-width:0.5;" x="460.664971392" xlink:href="#ma4c0bc426a" y="258.004501268"/>
      </g>
     </g>
     <g id="text_7">
      <!-- -0.8 -->
      <g transform="translate(437.154033892 260.763876268)scale(0.1 -0.1)">
       <use xlink:href="#BitstreamVeraSans-Roman-2d"/>
       <use x="36.083984375" xlink:href="#BitstreamVeraSans-Roman-30"/>
       <use x="99.70703125" xlink:href="#BitstreamVeraSans-Roman-2e"/>
       <use x="131.494140625" xlink:href="#BitstreamVeraSans-Roman-38"/>
      </g>
     </g>
    </g>
    <g id="ytick_2">
     <g id="line2d_37">
      <g>
       <use style="fill:#808080;stroke:#808080;stroke-width:0.5;" x="460.664971392" xlink:href="#ma4c0bc426a" y="210.017180896"/>
      </g>
     </g>
     <g id="text_8">
      <!-- -0.6 -->
      <g transform="translate(437.154033892 212.776555896)scale(0.1 -0.1)">
       <use xlink:href="#BitstreamVeraSans-Roman-2d"/>
       <use x="36.083984375" xlink:href="#BitstreamVeraSans-Roman-30"/>
       <use x="99.70703125" xlink:href="#BitstreamVeraSans-Roman-2e"/>
       <use x="131.494140625" xlink:href="#BitstreamVeraSans-Roman-36"/>
      </g>
     </g>
    </g>
    <g id="ytick_3">
     <g id="line2d_38">
      <g>
       <use style="fill:#808080;stroke:#808080;stroke-width:0.5;" x="460.664971392" xlink:href="#ma4c0bc426a" y="162.029860524"/>
      </g>
     </g>
     <g id="text_9">
      <!-- -0.4 -->
      <g transform="translate(437.154033892 164.789235524)scale(0.1 -0.1)">
       <use xlink:href="#BitstreamVeraSans-Roman-2d"/>
       <use x="36.083984375" xlink:href="#BitstreamVeraSans-Roman-30"/>
       <use x="99.70703125" xlink:href="#BitstreamVeraSans-Roman-2e"/>
       <use x="131.494140625" xlink:href="#BitstreamVeraSans-Roman-34"/>
      </g>
     </g>
    </g>
    <g id="ytick_4">
     <g id="line2d_39">
      <g>
       <use style="fill:#808080;stroke:#808080;stroke-width:0.5;" x="460.664971392" xlink:href="#ma4c0bc426a" y="114.042540152"/>
      </g>
     </g>
     <g id="text_10">
      <!-- -0.2 -->
      <g transform="translate(437.154033892 116.801915152)scale(0.1 -0.1)">
       <use xlink:href="#BitstreamVeraSans-Roman-2d"/>
       <use x="36.083984375" xlink:href="#BitstreamVeraSans-Roman-30"/>
       <use x="99.70703125" xlink:href="#BitstreamVeraSans-Roman-2e"/>
       <use x="131.494140625" xlink:href="#BitstreamVeraSans-Roman-32"/>
      </g>
     </g>
    </g>
    <g id="ytick_5">
     <g id="line2d_40">
      <g>
       <use style="fill:#808080;stroke:#808080;stroke-width:0.5;" x="460.664971392" xlink:href="#ma4c0bc426a" y="66.0552197802"/>
      </g>
     </g>
    </g>
    <g id="ytick_6">
     <g id="line2d_41">
      <g>
       <use style="fill:#808080;stroke:#808080;stroke-width:0.5;" x="460.664971392" xlink:href="#ma4c0bc426a" y="18.0678994083"/>
      </g>
     </g>
     <g id="text_11">
      <!-- 0.2 -->
      <g transform="translate(440.761846392 20.8272744083)scale(0.1 -0.1)">
       <use xlink:href="#BitstreamVeraSans-Roman-30"/>
       <use x="63.623046875" xlink:href="#BitstreamVeraSans-Roman-2e"/>
       <use x="95.41015625" xlink:href="#BitstreamVeraSans-Roman-32"/>
      </g>
     </g>
    </g>
    <g id="ytick_7">
     <g id="line2d_42">
      <defs>
       <path d="M 0 0 
L 2 0 
" id="m55f3fd8a60" style="stroke:#808080;stroke-width:0.5;"/>
      </defs>
      <g>
       <use style="fill:#808080;stroke:#808080;stroke-width:0.5;" x="460.664971392" xlink:href="#m55f3fd8a60" y="270.001331361"/>
      </g>
     </g>
    </g>
    <g id="ytick_8">
     <g id="line2d_43">
      <g>
       <use style="fill:#808080;stroke:#808080;stroke-width:0.5;" x="460.664971392" xlink:href="#m55f3fd8a60" y="246.007671175"/>
      </g>
     </g>
    </g>
    <g id="ytick_9">
     <g id="line2d_44">
      <g>
       <use style="fill:#808080;stroke:#808080;stroke-width:0.5;" x="460.664971392" xlink:href="#m55f3fd8a60" y="234.010841082"/>
      </g>
     </g>
    </g>
    <g id="ytick_10">
     <g id="line2d_45">
      <g>
       <use style="fill:#808080;stroke:#808080;stroke-width:0.5;" x="460.664971392" xlink:href="#m55f3fd8a60" y="222.014010989"/>
      </g>
     </g>
    </g>
    <g id="ytick_11">
     <g id="line2d_46">
      <g>
       <use style="fill:#808080;stroke:#808080;stroke-width:0.5;" x="460.664971392" xlink:href="#m55f3fd8a60" y="198.020350803"/>
      </g>
     </g>
    </g>
    <g id="ytick_12">
     <g id="line2d_47">
      <g>
       <use style="fill:#808080;stroke:#808080;stroke-width:0.5;" x="460.664971392" xlink:href="#m55f3fd8a60" y="186.02352071"/>
      </g>
     </g>
    </g>
    <g id="ytick_13">
     <g id="line2d_48">
      <g>
       <use style="fill:#808080;stroke:#808080;stroke-width:0.5;" x="460.664971392" xlink:href="#m55f3fd8a60" y="174.026690617"/>
      </g>
     </g>
    </g>
    <g id="ytick_14">
     <g id="line2d_49">
      <g>
       <use style="fill:#808080;stroke:#808080;stroke-width:0.5;" x="460.664971392" xlink:href="#m55f3fd8a60" y="150.033030431"/>
      </g>
     </g>
    </g>
    <g id="ytick_15">
     <g id="line2d_50">
      <g>
       <use style="fill:#808080;stroke:#808080;stroke-width:0.5;" x="460.664971392" xlink:href="#m55f3fd8a60" y="138.036200338"/>
      </g>
     </g>
    </g>
    <g id="ytick_16">
     <g id="line2d_51">
      <g>
       <use style="fill:#808080;stroke:#808080;stroke-width:0.5;" x="460.664971392" xlink:href="#m55f3fd8a60" y="126.039370245"/>
      </g>
     </g>
    </g>
    <g id="ytick_17">
     <g id="line2d_52">
      <g>
       <use style="fill:#808080;stroke:#808080;stroke-width:0.5;" x="460.664971392" xlink:href="#m55f3fd8a60" y="102.045710059"/>
      </g>
     </g>
    </g>
    <g id="ytick_18">
     <g id="line2d_53">
      <g>
       <use style="fill:#808080;stroke:#808080;stroke-width:0.5;" x="460.664971392" xlink:href="#m55f3fd8a60" y="90.0488799662"/>
      </g>
     </g>
    </g>
    <g id="ytick_19">
     <g id="line2d_54">
      <g>
       <use style="fill:#808080;stroke:#808080;stroke-width:0.5;" x="460.664971392" xlink:href="#m55f3fd8a60" y="78.0520498732"/>
      </g>
     </g>
    </g>
    <g id="ytick_20">
     <g id="line2d_55">
      <g>
       <use style="fill:#808080;stroke:#808080;stroke-width:0.5;" x="460.664971392" xlink:href="#m55f3fd8a60" y="54.0583896872"/>
      </g>
     </g>
    </g>
    <g id="ytick_21">
     <g id="line2d_56">
      <g>
       <use style="fill:#808080;stroke:#808080;stroke-width:0.5;" x="460.664971392" xlink:href="#m55f3fd8a60" y="42.0615595943"/>
      </g>
     </g>
    </g>
    <g id="ytick_22">
     <g id="line2d_57">
      <g>
       <use style="fill:#808080;stroke:#808080;stroke-width:0.5;" x="460.664971392" xlink:href="#m55f3fd8a60" y="30.0647295013"/>
      </g>
     </g>
    </g>
   </g>
   <g id="text_12">
    <!-- 1 -->
    <g style="opacity:0.95;" transform="translate(455.081067896 55.7668215554)scale(0.08 -0.08)">
     <use xlink:href="#BitstreamVeraSans-Roman-31"/>
    </g>
   </g>
   <g id="text_13">
    <!-- 6 -->
    <g style="fill:#ff0000;opacity:0.95;" transform="translate(280.996309599 103.701355875)scale(0.08 -0.08)">
     <use xlink:href="#BitstreamVeraSans-Roman-36"/>
    </g>
   </g>
   <g id="text_14">
    <!-- 7 -->
    <defs>
     <path d="M 8.203125 72.90625 
L 55.078125 72.90625 
L 55.078125 68.703125 
L 28.609375 0 
L 18.3125 0 
L 43.21875 64.59375 
L 8.203125 64.59375 
z
" id="BitstreamVeraSans-Roman-37"/>
    </defs>
    <g style="fill:#ff0000;opacity:0.95;" transform="translate(429.916568976 193.38965765)scale(0.08 -0.08)">
     <use xlink:href="#BitstreamVeraSans-Roman-37"/>
    </g>
   </g>
   <g id="text_15">
    <!-- 8 -->
    <g style="fill:#ff0000;opacity:0.95;" transform="translate(486.777985378 238.833650042)scale(0.08 -0.08)">
     <use xlink:href="#BitstreamVeraSans-Roman-38"/>
    </g>
   </g>
   <g id="text_16">
    <!-- 9 -->
    <defs>
     <path d="M 10.984375 1.515625 
L 10.984375 10.5 
Q 14.703125 8.734375 18.5 7.8125 
Q 22.3125 6.890625 25.984375 6.890625 
Q 35.75 6.890625 40.890625 13.453125 
Q 46.046875 20.015625 46.78125 33.40625 
Q 43.953125 29.203125 39.59375 26.953125 
Q 35.25 24.703125 29.984375 24.703125 
Q 19.046875 24.703125 12.671875 31.3125 
Q 6.296875 37.9375 6.296875 49.421875 
Q 6.296875 60.640625 12.9375 67.421875 
Q 19.578125 74.21875 30.609375 74.21875 
Q 43.265625 74.21875 49.921875 64.515625 
Q 56.59375 54.828125 56.59375 36.375 
Q 56.59375 19.140625 48.40625 8.859375 
Q 40.234375 -1.421875 26.421875 -1.421875 
Q 22.703125 -1.421875 18.890625 -0.6875 
Q 15.09375 0.046875 10.984375 1.515625 
M 30.609375 32.421875 
Q 37.25 32.421875 41.125 36.953125 
Q 45.015625 41.5 45.015625 49.421875 
Q 45.015625 57.28125 41.125 61.84375 
Q 37.25 66.40625 30.609375 66.40625 
Q 23.96875 66.40625 20.09375 61.84375 
Q 16.21875 57.28125 16.21875 49.421875 
Q 16.21875 41.5 20.09375 36.953125 
Q 23.96875 32.421875 30.609375 32.421875 
" id="BitstreamVeraSans-Roman-39"/>
    </defs>
    <g style="fill:#ff0000;opacity:0.95;" transform="translate(560.844701208 272.448767963)scale(0.08 -0.08)">
     <use xlink:href="#BitstreamVeraSans-Roman-39"/>
    </g>
   </g>
   <g id="text_17">
    <!-- 13 -->
    <defs>
     <path d="M 40.578125 39.3125 
Q 47.65625 37.796875 51.625 33 
Q 55.609375 28.21875 55.609375 21.1875 
Q 55.609375 10.40625 48.1875 4.484375 
Q 40.765625 -1.421875 27.09375 -1.421875 
Q 22.515625 -1.421875 17.65625 -0.515625 
Q 12.796875 0.390625 7.625 2.203125 
L 7.625 11.71875 
Q 11.71875 9.328125 16.59375 8.109375 
Q 21.484375 6.890625 26.8125 6.890625 
Q 36.078125 6.890625 40.9375 10.546875 
Q 45.796875 14.203125 45.796875 21.1875 
Q 45.796875 27.640625 41.28125 31.265625 
Q 36.765625 34.90625 28.71875 34.90625 
L 20.21875 34.90625 
L 20.21875 43.015625 
L 29.109375 43.015625 
Q 36.375 43.015625 40.234375 45.921875 
Q 44.09375 48.828125 44.09375 54.296875 
Q 44.09375 59.90625 40.109375 62.90625 
Q 36.140625 65.921875 28.71875 65.921875 
Q 24.65625 65.921875 20.015625 65.03125 
Q 15.375 64.15625 9.8125 62.3125 
L 9.8125 71.09375 
Q 15.4375 72.65625 20.34375 73.4375 
Q 25.25 74.21875 29.59375 74.21875 
Q 40.828125 74.21875 47.359375 69.109375 
Q 53.90625 64.015625 53.90625 55.328125 
Q 53.90625 49.265625 50.4375 45.09375 
Q 46.96875 40.921875 40.578125 39.3125 
" id="BitstreamVeraSans-Roman-33"/>
    </defs>
    <g style="fill:#00ff80;opacity:0.95;" transform="translate(79.1216211062 202.771178783)scale(0.08 -0.08)">
     <use xlink:href="#BitstreamVeraSans-Roman-31"/>
     <use x="63.623046875" xlink:href="#BitstreamVeraSans-Roman-33"/>
    </g>
   </g>
   <g id="text_18">
    <!-- 14 -->
    <g style="fill:#00ff80;opacity:0.95;" transform="translate(65.0199198983 227.244712172)scale(0.08 -0.08)">
     <use xlink:href="#BitstreamVeraSans-Roman-31"/>
     <use x="63.623046875" xlink:href="#BitstreamVeraSans-Roman-34"/>
    </g>
   </g>
   <g id="text_19">
    <!-- 15 -->
    <defs>
     <path d="M 10.796875 72.90625 
L 49.515625 72.90625 
L 49.515625 64.59375 
L 19.828125 64.59375 
L 19.828125 46.734375 
Q 21.96875 47.46875 24.109375 47.828125 
Q 26.265625 48.1875 28.421875 48.1875 
Q 40.625 48.1875 47.75 41.5 
Q 54.890625 34.8125 54.890625 23.390625 
Q 54.890625 11.625 47.5625 5.09375 
Q 40.234375 -1.421875 26.90625 -1.421875 
Q 22.3125 -1.421875 17.546875 -0.640625 
Q 12.796875 0.140625 7.71875 1.703125 
L 7.71875 11.625 
Q 12.109375 9.234375 16.796875 8.0625 
Q 21.484375 6.890625 26.703125 6.890625 
Q 35.15625 6.890625 40.078125 11.328125 
Q 45.015625 15.765625 45.015625 23.390625 
Q 45.015625 31 40.078125 35.4375 
Q 35.15625 39.890625 26.703125 39.890625 
Q 22.75 39.890625 18.8125 39.015625 
Q 14.890625 38.140625 10.796875 36.28125 
z
" id="BitstreamVeraSans-Roman-35"/>
    </defs>
    <g style="fill:#00ffbf;opacity:0.95;" transform="translate(156.187024793 152.600435334)scale(0.08 -0.08)">
     <use xlink:href="#BitstreamVeraSans-Roman-31"/>
     <use x="63.623046875" xlink:href="#BitstreamVeraSans-Roman-35"/>
    </g>
   </g>
   <g id="text_20">
    <!-- 16 -->
    <g style="fill:#00ffbf;opacity:0.95;" transform="translate(122.134869676 187.463223584)scale(0.08 -0.08)">
     <use xlink:href="#BitstreamVeraSans-Roman-31"/>
     <use x="63.623046875" xlink:href="#BitstreamVeraSans-Roman-36"/>
    </g>
   </g>
   <g id="text_21">
    <!-- 17 -->
    <g style="fill:#0000bf;opacity:0.95;" transform="translate(190.545168468 165.485030854)scale(0.08 -0.08)">
     <use xlink:href="#BitstreamVeraSans-Roman-31"/>
     <use x="63.623046875" xlink:href="#BitstreamVeraSans-Roman-37"/>
    </g>
   </g>
   <g id="text_22">
    <!-- 18 -->
    <g style="fill:#0000bf;opacity:0.95;" transform="translate(229.187151939 143.866743026)scale(0.08 -0.08)">
     <use xlink:href="#BitstreamVeraSans-Roman-31"/>
     <use x="63.623046875" xlink:href="#BitstreamVeraSans-Roman-38"/>
    </g>
   </g>
   <g id="text_23">
    <!-- 19 -->
    <g style="fill:#0000bf;opacity:0.95;" transform="translate(278.145321043 122.152480558)scale(0.08 -0.08)">
     <use xlink:href="#BitstreamVeraSans-Roman-31"/>
     <use x="63.623046875" xlink:href="#BitstreamVeraSans-Roman-39"/>
    </g>
   </g>
   <g id="text_24">
    <!-- 20 -->
    <g style="fill:#0000bf;opacity:0.95;" transform="translate(368.280807374 98.9746048183)scale(0.08 -0.08)">
     <use xlink:href="#BitstreamVeraSans-Roman-32"/>
     <use x="63.623046875" xlink:href="#BitstreamVeraSans-Roman-30"/>
    </g>
   </g>
   <g id="text_25">
    <!-- 21 -->
    <g style="fill:#0000bf;opacity:0.95;" transform="translate(408.627584234 83.0572106509)scale(0.08 -0.08)">
     <use xlink:href="#BitstreamVeraSans-Roman-32"/>
     <use x="63.623046875" xlink:href="#BitstreamVeraSans-Roman-31"/>
    </g>
   </g>
   <g id="text_26">
    <!-- 22 -->
    <g style="fill:#0000bf;opacity:0.95;" transform="translate(465.397204069 64.5652967456)scale(0.08 -0.08)">
     <use xlink:href="#BitstreamVeraSans-Roman-32"/>
     <use x="63.623046875" xlink:href="#BitstreamVeraSans-Roman-32"/>
    </g>
   </g>
   <g id="text_27">
    <!-- 23 -->
    <g style="fill:#0000bf;opacity:0.95;" transform="translate(450.779693579 65.7529829248)scale(0.08 -0.08)">
     <use xlink:href="#BitstreamVeraSans-Roman-32"/>
     <use x="63.623046875" xlink:href="#BitstreamVeraSans-Roman-33"/>
    </g>
   </g>
   <g id="text_28">
    <!-- 24 -->
    <g style="fill:#0000bf;opacity:0.95;" transform="translate(454.793826319 71.9937339391)scale(0.08 -0.08)">
     <use xlink:href="#BitstreamVeraSans-Roman-32"/>
     <use x="63.623046875" xlink:href="#BitstreamVeraSans-Roman-34"/>
    </g>
   </g>
   <g id="text_29">
    <!-- 25 -->
    <g style="fill:#33cc40;opacity:0.95;" transform="translate(127.555238398 83.2827510566)scale(0.08 -0.08)">
     <use xlink:href="#BitstreamVeraSans-Roman-32"/>
     <use x="63.623046875" xlink:href="#BitstreamVeraSans-Roman-35"/>
    </g>
   </g>
   <g id="text_30">
    <!-- 26 -->
    <g style="fill:#33cc40;opacity:0.95;" transform="translate(213.844011443 68.8157736475)scale(0.08 -0.08)">
     <use xlink:href="#BitstreamVeraSans-Roman-32"/>
     <use x="63.623046875" xlink:href="#BitstreamVeraSans-Roman-36"/>
    </g>
   </g>
   <g id="text_31">
    <!-- 27 -->
    <g style="fill:#33cc40;opacity:0.95;" transform="translate(301.706439924 53.7657502959)scale(0.08 -0.08)">
     <use xlink:href="#BitstreamVeraSans-Roman-32"/>
     <use x="63.623046875" xlink:href="#BitstreamVeraSans-Roman-37"/>
    </g>
   </g>
   <g id="text_32">
    <!-- 28 -->
    <g style="fill:#33cc40;opacity:0.95;" transform="translate(370.816141132 50.8097313609)scale(0.08 -0.08)">
     <use xlink:href="#BitstreamVeraSans-Roman-32"/>
     <use x="63.623046875" xlink:href="#BitstreamVeraSans-Roman-38"/>
    </g>
   </g>
   <g id="text_33">
    <!-- 29 -->
    <g style="fill:#33cc40;opacity:0.95;" transform="translate(483.454900191 42.2535921386)scale(0.08 -0.08)">
     <use xlink:href="#BitstreamVeraSans-Roman-32"/>
     <use x="63.623046875" xlink:href="#BitstreamVeraSans-Roman-39"/>
    </g>
   </g>
   <g id="text_34">
    <!-- 30 -->
    <g style="fill:#33cc40;opacity:0.95;" transform="translate(449.035558805 66.7117695858)scale(0.08 -0.08)">
     <use xlink:href="#BitstreamVeraSans-Roman-33"/>
     <use x="63.623046875" xlink:href="#BitstreamVeraSans-Roman-30"/>
    </g>
   </g>
   <g id="text_35">
    <!-- 50 -->
    <g style="fill:#f28040;opacity:0.95;" transform="translate(288.898633185 266.306390955)scale(0.08 -0.08)">
     <use xlink:href="#BitstreamVeraSans-Roman-35"/>
     <use x="63.623046875" xlink:href="#BitstreamVeraSans-Roman-30"/>
    </g>
   </g>
   <g id="text_36">
    <!-- 51 -->
    <g style="fill:#f28040;opacity:0.95;" transform="translate(309.618429752 230.051970414)scale(0.08 -0.08)">
     <use xlink:href="#BitstreamVeraSans-Roman-35"/>
     <use x="63.623046875" xlink:href="#BitstreamVeraSans-Roman-31"/>
    </g>
   </g>
   <g id="text_37">
    <!-- 52 -->
    <g style="fill:#f28040;opacity:0.95;" transform="translate(344.326274634 208.937549451)scale(0.08 -0.08)">
     <use xlink:href="#BitstreamVeraSans-Roman-35"/>
     <use x="63.623046875" xlink:href="#BitstreamVeraSans-Roman-32"/>
    </g>
   </g>
   <g id="text_38">
    <!-- 53 -->
    <g style="fill:#f28040;opacity:0.95;" transform="translate(379.16525747 180.984935334)scale(0.08 -0.08)">
     <use xlink:href="#BitstreamVeraSans-Roman-35"/>
     <use x="63.623046875" xlink:href="#BitstreamVeraSans-Roman-33"/>
    </g>
   </g>
   <g id="text_39">
    <!-- 54 -->
    <g style="fill:#f28040;opacity:0.95;" transform="translate(403.294640814 142.379136095)scale(0.08 -0.08)">
     <use xlink:href="#BitstreamVeraSans-Roman-35"/>
     <use x="63.623046875" xlink:href="#BitstreamVeraSans-Roman-34"/>
    </g>
   </g>
   <g id="text_40">
    <!-- 48 -->
    <g style="fill:#f28040;opacity:0.95;" transform="translate(312.416039415 265.370638208)scale(0.08 -0.08)">
     <use xlink:href="#BitstreamVeraSans-Roman-34"/>
     <use x="63.623046875" xlink:href="#BitstreamVeraSans-Roman-38"/>
    </g>
   </g>
   <g id="text_41">
    <!-- 49 -->
    <g style="fill:#f28040;opacity:0.95;" transform="translate(348.784965035 227.748579036)scale(0.08 -0.08)">
     <use xlink:href="#BitstreamVeraSans-Roman-34"/>
     <use x="63.623046875" xlink:href="#BitstreamVeraSans-Roman-39"/>
    </g>
   </g>
   <g id="text_42">
    <!-- 55 -->
    <g style="fill:#f28040;opacity:0.95;" transform="translate(347.517298156 260.044045647)scale(0.08 -0.08)">
     <use xlink:href="#BitstreamVeraSans-Roman-35"/>
     <use x="63.623046875" xlink:href="#BitstreamVeraSans-Roman-35"/>
    </g>
   </g>
   <g id="text_43">
    <!-- 32 -->
    <g style="fill:#e600cc;opacity:0.95;" transform="translate(35.1466942149 167.764428571)scale(0.08 -0.08)">
     <use xlink:href="#BitstreamVeraSans-Roman-33"/>
     <use x="63.623046875" xlink:href="#BitstreamVeraSans-Roman-32"/>
    </g>
   </g>
   <g id="text_44">
    <!-- 34 -->
    <g style="fill:#e600cc;opacity:0.95;" transform="translate(45.7688684043 204.618690617)scale(0.08 -0.08)">
     <use xlink:href="#BitstreamVeraSans-Roman-33"/>
     <use x="63.623046875" xlink:href="#BitstreamVeraSans-Roman-34"/>
    </g>
   </g>
   <g id="text_45">
    <!-- 35 -->
    <g style="fill:#e600cc;opacity:0.95;" transform="translate(78.2473680865 223.525694844)scale(0.08 -0.08)">
     <use xlink:href="#BitstreamVeraSans-Roman-33"/>
     <use x="63.623046875" xlink:href="#BitstreamVeraSans-Roman-35"/>
    </g>
   </g>
   <g id="text_46">
    <!-- 36 -->
    <g style="fill:#e600cc;opacity:0.95;" transform="translate(126.418709472 182.256599324)scale(0.08 -0.08)">
     <use xlink:href="#BitstreamVeraSans-Roman-33"/>
     <use x="63.623046875" xlink:href="#BitstreamVeraSans-Roman-36"/>
    </g>
   </g>
   <g id="text_47">
    <!-- 37 -->
    <g style="fill:#cc00cc;opacity:0.95;" transform="translate(109.45820089 191.350196534)scale(0.08 -0.08)">
     <use xlink:href="#BitstreamVeraSans-Roman-33"/>
     <use x="63.623046875" xlink:href="#BitstreamVeraSans-Roman-37"/>
    </g>
   </g>
   <g id="text_48">
    <!-- 38 -->
    <g style="fill:#cc00cc;opacity:0.95;" transform="translate(154.788219962 154.519928149)scale(0.08 -0.08)">
     <use xlink:href="#BitstreamVeraSans-Roman-33"/>
     <use x="63.623046875" xlink:href="#BitstreamVeraSans-Roman-38"/>
    </g>
   </g>
   <g id="text_49">
    <!-- 39 -->
    <g style="fill:#cc00cc;opacity:0.95;" transform="translate(225.471576605 119.561165258)scale(0.08 -0.08)">
     <use xlink:href="#BitstreamVeraSans-Roman-33"/>
     <use x="63.623046875" xlink:href="#BitstreamVeraSans-Roman-39"/>
    </g>
   </g>
   <g id="text_50">
    <!-- 41 -->
    <g style="fill:#b200b2;opacity:0.95;" transform="translate(40.610775588 212.872509721)scale(0.08 -0.08)">
     <use xlink:href="#BitstreamVeraSans-Roman-34"/>
     <use x="63.623046875" xlink:href="#BitstreamVeraSans-Roman-31"/>
    </g>
   </g>
   <g id="text_51">
    <!-- 45 -->
    <g style="fill:#b200b2;opacity:0.95;" transform="translate(65.6581246027 231.083697802)scale(0.08 -0.08)">
     <use xlink:href="#BitstreamVeraSans-Roman-34"/>
     <use x="63.623046875" xlink:href="#BitstreamVeraSans-Roman-35"/>
    </g>
   </g>
   <g id="text_52">
    <!-- 46 -->
    <g style="fill:#990099;opacity:0.95;" transform="translate(233.558417038 123.208201606)scale(0.08 -0.08)">
     <use xlink:href="#BitstreamVeraSans-Roman-34"/>
     <use x="63.623046875" xlink:href="#BitstreamVeraSans-Roman-36"/>
    </g>
   </g>
   <g id="text_53">
    <!-- 47 -->
    <g style="fill:#990099;opacity:0.95;" transform="translate(366.969427845 81.7255625106)scale(0.08 -0.08)">
     <use xlink:href="#BitstreamVeraSans-Roman-34"/>
     <use x="63.623046875" xlink:href="#BitstreamVeraSans-Roman-37"/>
    </g>
   </g>
  </g>
 </g>
 <defs>
  <clipPath id="pcd5cf81123">
   <rect height="262.010769231" width="550.08" x="12.96" y="13.0292307692"/>
  </clipPath>
 </defs>
</svg>
